<?xml version="1.0" standalone="no"?>
<!DOCTYPE svg PUBLIC "-//W3C//DTD SVG 20010904//EN"
 "http://www.w3.org/TR/2001/REC-SVG-20010904/DTD/svg10.dtd">
<svg version="1.0" xmlns="http://www.w3.org/2000/svg"
 width="740.000000pt" height="740.000000pt" viewBox="0 0 740.000000 740.000000"
 preserveAspectRatio="xMidYMid meet">

<g transform="translate(0.000000,740.000000) scale(0.100000,-0.100000)"
fill="#000000" stroke="none">
<path d="M2650 6357 c-32 -16 -52 -59 -44 -92 3 -14 19 -36 35 -49 l29 -25 0
-518 0 -518 95 -95 95 -95 0 -107 c0 -61 -4 -108 -9 -108 -6 0 -11 -15 -13
-32 -3 -31 -6 -33 -43 -36 -69 -6 -75 -18 -75 -154 l0 -118 -35 0 c-24 0 -35
-5 -35 -15 0 -13 -57 -15 -450 -15 -383 0 -450 2 -450 14 0 22 -49 56 -82 56
-41 0 -78 -40 -78 -85 0 -45 37 -85 78 -85 33 0 82 34 82 56 0 12 67 14 450
14 393 0 450 -2 450 -15 0 -10 11 -15 35 -15 34 0 35 -1 35 -40 0 -39 -1 -40
-35 -40 -24 0 -35 -5 -35 -15 0 -13 -80 -15 -662 -15 l-663 0 -106 106 c-105
104 -107 107 -102 145 5 33 1 42 -26 70 -27 26 -37 30 -63 25 -60 -12 -90 -63
-68 -116 15 -36 51 -54 93 -47 32 5 39 0 143 -104 l109 -109 672 0 c592 0 673
-2 673 -15 0 -10 11 -15 35 -15 l35 0 0 -50 0 -50 -35 0 c-24 0 -35 -5 -35
-15 0 -13 -45 -15 -349 -15 -342 0 -350 0 -356 20 -7 23 -53 50 -84 50 -11 0
-32 -11 -47 -24 -58 -49 -20 -146 57 -146 29 0 79 37 79 60 0 7 113 10 350 10
304 0 350 -2 350 -15 0 -10 11 -15 35 -15 32 0 35 -2 35 -30 0 -28 -3 -30 -35
-30 -24 0 -35 -5 -35 -15 0 -13 -20 -15 -121 -15 l-120 0 -33 35 c-41 43 -85
47 -121 10 -48 -47 -25 -125 42 -141 32 -9 74 12 88 44 9 21 15 22 137 22 107
0 128 -2 128 -15 0 -10 11 -15 35 -15 33 0 35 -2 35 -35 0 -33 -2 -35 -35 -35
-24 0 -35 -5 -35 -15 0 -11 -11 -15 -40 -15 -29 0 -40 -4 -40 -15 0 -11 11
-15 40 -15 29 0 40 -4 40 -15 0 -10 11 -15 35 -15 34 0 35 -1 35 -40 0 -39 -1
-40 -34 -40 -21 0 -36 -6 -40 -15 -4 -11 -22 -15 -70 -15 -63 0 -69 3 -248
100 l-183 100 -447 0 -447 0 -12 23 c-29 53 -93 64 -134 22 -54 -53 -12 -145
67 -145 11 0 35 16 54 35 l33 35 437 0 437 0 187 -100 186 -100 72 0 c40 0 72
-4 72 -9 0 -6 15 -11 33 -13 31 -3 32 -5 32 -48 0 -43 -1 -45 -32 -48 -18 -2
-33 -7 -33 -13 0 -5 -60 -9 -140 -9 l-141 0 -111 71 -112 71 -106 -1 -105 -2
-28 36 c-23 29 -34 35 -66 35 -51 0 -81 -29 -81 -79 0 -49 32 -81 83 -81 29 0
41 7 64 35 l28 35 94 0 95 0 117 -75 116 -75 142 0 c117 0 143 -3 147 -15 4
-9 19 -15 40 -15 34 0 34 -1 34 -45 0 -45 0 -45 -35 -45 -24 0 -35 -5 -35 -15
0 -13 -45 -15 -343 -15 l-342 0 -105 -105 -105 -105 -249 0 -250 0 -26 32
c-22 26 -34 32 -65 32 -74 0 -112 -88 -60 -139 40 -41 105 -33 131 16 l15 29
257 0 257 0 105 105 105 105 337 0 c294 0 338 -2 338 -15 0 -10 11 -15 35 -15
l35 0 0 -50 0 -50 -35 0 c-24 0 -35 -5 -35 -15 0 -13 -26 -15 -174 -15 l-175
0 -148 -160 -147 -160 -243 0 -242 0 -126 -250 c-122 -243 -127 -250 -156
-250 -70 0 -105 -92 -54 -140 72 -68 173 11 130 101 l-16 34 121 238 122 237
238 0 239 0 148 160 147 160 168 0 c143 0 168 -2 168 -15 0 -10 11 -15 35 -15
l35 0 0 -93 c0 -108 9 -123 75 -129 37 -3 40 -5 43 -35 2 -18 7 -33 13 -33 5
0 9 -47 9 -108 l0 -107 -95 -95 -95 -95 0 -517 0 -518 -32 -29 c-78 -69 -2
-185 90 -137 33 17 42 34 42 77 0 29 -37 79 -60 79 -7 0 -10 164 -10 518 l0
517 95 95 95 95 0 112 c0 94 3 113 15 113 10 0 15 11 15 35 l0 35 80 0 80 0 0
-35 c0 -24 5 -35 15 -35 13 0 15 -25 15 -168 l0 -167 -80 -80 -80 -80 0 -153
c0 -152 0 -152 -24 -162 -51 -19 -63 -94 -21 -135 51 -52 139 -14 139 60 0 31
-6 43 -32 65 l-32 26 0 145 0 144 80 80 80 80 0 172 c0 147 2 173 15 173 10 0
15 11 15 35 l0 35 70 0 70 0 0 -35 c0 -24 5 -35 15 -35 13 0 15 -87 15 -723
l0 -724 -24 -12 c-25 -14 -46 -50 -46 -81 0 -29 41 -69 77 -76 27 -5 37 -1 63
24 38 39 40 83 5 117 -13 14 -29 25 -35 25 -7 0 -10 227 -10 725 0 638 2 725
15 725 10 0 15 11 15 35 l0 35 65 0 65 0 0 -35 c0 -24 5 -35 15 -35 13 0 15
-37 15 -271 l0 -270 -35 -33 c-44 -42 -46 -77 -6 -117 38 -38 74 -38 112 0 42
43 34 106 -17 130 l-24 11 0 275 c0 238 2 275 15 275 10 0 15 11 15 35 l0 35
75 0 75 0 0 -35 c0 -24 5 -35 15 -35 13 0 15 -37 15 -271 l0 -270 -36 -35
c-32 -29 -36 -38 -30 -66 7 -37 47 -78 77 -78 28 0 75 26 83 45 13 35 6 76
-19 100 -13 14 -29 25 -35 25 -7 0 -10 90 -10 275 0 238 2 275 15 275 10 0 15
11 15 35 l0 35 65 0 65 0 0 -35 c0 -24 5 -35 15 -35 13 0 15 -87 15 -723 l0
-724 -24 -13 c-48 -25 -57 -98 -17 -134 53 -48 141 -10 141 60 0 34 -35 84
-60 84 -7 0 -10 227 -10 725 0 638 2 725 15 725 11 0 15 11 15 35 l0 36 73 -3
72 -3 3 -32 c2 -18 7 -33 13 -33 5 0 9 -72 9 -173 l0 -172 85 -85 85 -85 0
-142 c0 -93 -4 -143 -10 -143 -6 0 -22 -11 -35 -25 -52 -51 -16 -145 54 -145
79 0 114 99 52 151 l-31 25 0 145 0 144 -85 85 -85 85 0 167 c0 143 2 168 15
168 10 0 15 11 15 35 l0 35 80 0 80 0 0 -35 c0 -24 5 -35 15 -35 12 0 15 -19
15 -113 l0 -112 95 -95 95 -95 0 -517 c0 -509 0 -517 -20 -523 -23 -7 -50 -54
-50 -85 0 -31 53 -80 85 -80 38 0 85 50 85 90 0 30 -37 80 -60 80 -7 0 -10
166 -10 523 l0 522 -95 95 -95 95 0 107 c0 89 3 108 15 108 10 0 15 11 15 35
0 35 0 35 43 35 65 0 77 19 77 118 l0 82 35 0 c24 0 35 5 35 15 0 13 57 15
450 15 383 0 450 -2 450 -14 0 -22 49 -56 82 -56 41 0 78 40 78 85 0 75 -84
112 -135 60 -14 -13 -25 -29 -25 -35 0 -7 -144 -10 -450 -10 -393 0 -450 2
-450 15 0 10 -11 15 -35 15 -34 0 -35 1 -35 40 0 39 1 40 35 40 24 0 35 5 35
15 0 13 80 15 662 15 l663 0 106 -106 c103 -103 107 -108 102 -143 -14 -103
136 -134 162 -34 14 59 -35 110 -98 100 -32 -5 -39 0 -143 104 l-109 109 -672
0 c-592 0 -673 2 -673 15 0 10 -11 15 -35 15 l-35 0 0 50 0 50 35 0 c24 0 35
5 35 15 0 13 45 15 348 15 l347 0 17 -29 c33 -58 124 -48 148 15 31 82 -74
151 -135 89 -14 -13 -25 -29 -25 -35 0 -7 -113 -10 -350 -10 -304 0 -350 2
-350 15 0 10 -11 15 -35 15 -32 0 -35 2 -35 30 0 28 3 30 35 30 24 0 35 5 35
15 0 13 20 15 121 15 l120 0 33 -35 c25 -26 42 -35 65 -35 67 0 106 87 64 139
-27 33 -82 38 -116 11 -15 -12 -27 -28 -27 -36 0 -11 -24 -14 -130 -14 -109 0
-130 2 -130 15 0 10 -11 15 -35 15 -33 0 -35 2 -35 35 0 33 2 35 35 35 24 0
35 5 35 15 0 11 11 15 40 15 29 0 40 4 40 15 0 11 -11 15 -40 15 -29 0 -40 4
-40 15 0 10 -11 15 -35 15 -34 0 -35 1 -35 40 0 39 1 40 34 40 21 0 36 6 40
15 4 11 22 15 70 15 62 0 69 -3 249 -100 l185 -100 442 0 441 0 33 -35 c41
-43 85 -47 121 -10 55 54 13 145 -66 145 -12 0 -36 -16 -55 -35 l-33 -35 -438
0 -438 1 -185 99 -185 100 -72 0 c-40 0 -73 4 -73 9 0 6 -15 11 -32 13 -32 3
-33 5 -33 48 0 43 1 45 33 48 17 2 32 7 32 13 0 5 60 9 141 9 l140 0 112 -71
112 -71 105 1 105 2 28 -36 c23 -29 34 -35 67 -35 53 0 80 27 80 78 0 50 -32
82 -83 82 -29 0 -41 -7 -64 -35 l-28 -35 -94 0 -94 0 -118 75 -118 75 -146 0
c-122 0 -145 2 -145 15 0 10 -11 15 -35 15 -35 0 -35 0 -35 45 0 45 0 45 35
45 24 0 35 5 35 15 0 13 45 15 343 15 l342 0 105 105 105 105 249 0 250 0 26
-32 c22 -26 34 -32 65 -32 74 0 112 88 60 139 -40 41 -105 33 -131 -16 l-15
-29 -257 0 -257 0 -105 -105 -105 -105 -337 0 c-294 0 -338 2 -338 15 0 10
-11 15 -35 15 l-35 0 0 50 0 50 35 0 c24 0 35 5 35 15 0 13 26 15 174 15 l175
0 148 160 147 160 243 0 243 0 125 250 c122 244 126 250 155 250 71 0 107 92
55 140 -72 68 -172 -10 -130 -101 l16 -34 -121 -237 -121 -238 -239 0 -239 0
-148 -160 -147 -160 -168 0 c-143 0 -168 2 -168 15 0 10 -11 15 -35 15 l-35 0
0 128 c0 149 -6 162 -78 162 -41 0 -42 1 -42 35 0 24 -5 35 -15 35 -12 0 -15
19 -15 108 l0 107 95 95 95 95 0 520 0 520 29 17 c64 36 46 131 -28 152 -26 7
-37 5 -59 -11 -40 -29 -49 -65 -29 -107 9 -19 25 -37 36 -41 21 -6 21 -10 21
-523 l0 -517 -95 -95 -95 -95 0 -112 c0 -94 -3 -113 -15 -113 -10 0 -15 -11
-15 -35 l0 -35 -80 0 -80 0 0 35 c0 24 -5 35 -15 35 -13 0 -15 25 -15 168 l0
167 85 85 85 85 0 144 0 145 32 26 c43 36 45 91 4 126 -56 49 -136 13 -136
-61 0 -35 35 -85 60 -85 6 0 10 -50 10 -143 l0 -142 -85 -85 -85 -85 0 -172
c0 -132 -3 -173 -13 -173 -7 0 -12 -13 -12 -32 l0 -33 -72 -3 -73 -3 0 36 c0
24 -4 35 -15 35 -13 0 -15 87 -15 725 0 498 3 725 10 725 6 0 22 11 35 25 76
75 -37 191 -116 119 -40 -36 -30 -111 17 -132 l24 -12 0 -725 c0 -638 -2 -725
-15 -725 -10 0 -15 -11 -15 -35 l0 -35 -65 0 -65 0 0 35 c0 24 -5 35 -15 35
-13 0 -15 37 -15 275 0 185 3 275 10 275 6 0 22 11 35 25 25 24 32 65 19 100
-8 19 -55 45 -83 45 -30 0 -70 -41 -77 -78 -6 -28 -2 -37 30 -66 l36 -35 0
-270 c0 -234 -2 -271 -15 -271 -10 0 -15 -11 -15 -35 l0 -35 -75 0 -75 0 0 35
c0 24 -5 35 -15 35 -13 0 -15 37 -15 275 0 274 0 274 23 286 81 44 49 159 -44
159 -11 0 -34 -13 -50 -29 -40 -40 -38 -75 6 -117 l35 -33 0 -270 c0 -234 -2
-271 -15 -271 -10 0 -15 -11 -15 -35 l0 -35 -65 0 -65 0 0 35 c0 24 -5 35 -15
35 -13 0 -15 87 -15 725 0 498 3 725 10 725 6 0 22 11 35 25 35 34 33 78 -5
117 -26 25 -36 29 -63 24 -36 -7 -77 -47 -77 -77 0 -31 27 -77 50 -84 20 -6
20 -14 20 -731 0 -637 -2 -724 -15 -724 -10 0 -15 -11 -15 -35 l0 -35 -70 0
-70 0 0 35 c0 24 -5 35 -15 35 -13 0 -15 26 -15 173 l0 172 -80 80 -80 80 0
144 0 145 32 26 c26 22 32 34 32 65 0 74 -88 112 -139 60 -42 -41 -30 -116 21
-135 24 -10 24 -10 24 -162 l0 -153 80 -80 80 -80 0 -167 c0 -143 -2 -168 -15
-168 -10 0 -15 -11 -15 -35 l0 -35 -80 0 -80 0 0 35 c0 24 -5 35 -15 35 -12 0
-15 19 -15 113 l0 112 -95 95 -95 95 0 517 c0 354 3 518 10 518 23 0 60 50 60
79 0 43 -9 60 -41 76 -34 18 -47 18 -79 2z m93 -39 c17 -23 18 -31 8 -56 -23
-54 -94 -62 -120 -13 -42 77 60 140 112 69z m662 12 c26 -29 22 -70 -10 -97
-63 -55 -144 38 -85 97 26 26 72 26 95 0z m677 3 c37 -44 27 -93 -24 -114 -25
-10 -33 -9 -56 8 -35 26 -41 74 -13 102 26 26 73 27 93 4z m666 1 c29 -20 30
-74 2 -99 -42 -38 -110 -9 -110 47 0 56 60 86 108 52z m-1734 -656 c51 -73
-48 -151 -103 -82 -12 15 -21 32 -21 39 0 7 9 24 21 39 27 34 81 36 103 4z
m1466 2 c41 -41 10 -110 -47 -110 -34 0 -46 8 -62 38 -34 65 56 125 109 72z
m-858 -247 c22 -20 23 -70 1 -95 -20 -22 -70 -23 -95 -1 -22 20 -23 70 -1 95
20 22 70 23 95 1z m247 -9 c12 -15 21 -32 21 -39 0 -7 -9 -24 -21 -39 -40 -50
-119 -25 -119 39 0 64 79 89 119 39z m2322 -135 c49 -26 41 -97 -13 -120 -25
-10 -33 -9 -56 8 -71 52 -8 154 69 112z m-1551 -1589 l0 -940 -940 0 -940 0 0
940 0 940 940 0 940 0 0 -940z m-3558 823 c37 -44 27 -93 -24 -114 -25 -10
-33 -9 -56 8 -35 26 -41 74 -13 102 26 26 73 27 93 4z m5181 -94 c30 -16 37
-28 37 -66 0 -56 -69 -84 -110 -43 -29 29 -26 74 6 99 31 24 37 25 67 10z
m-4543 -19 c41 -41 10 -110 -47 -110 -34 0 -46 8 -62 37 -16 31 -14 46 9 71
26 28 73 29 100 2z m199 -366 c12 -15 21 -32 21 -39 0 -7 -9 -24 -21 -39 -40
-50 -119 -25 -119 39 0 64 79 89 119 39z m445 -146 c51 -73 -48 -151 -103 -82
-12 15 -21 32 -21 39 0 7 9 24 21 39 27 34 81 36 103 4z m3241 -23 c14 -13 25
-33 25 -45 0 -27 -43 -70 -70 -70 -27 0 -70 43 -70 70 0 27 43 70 70 70 12 0
32 -11 45 -25z m-4392 -103 c40 -35 9 -112 -45 -112 -80 0 -95 107 -18 132 19
6 40 -1 63 -20z m5069 -119 c41 -37 10 -115 -47 -115 -56 0 -83 61 -49 110 18
27 69 30 96 5z m-4397 -108 c14 -13 25 -33 25 -45 0 -27 -43 -70 -70 -70 -27
0 -70 43 -70 70 0 27 43 70 70 70 12 0 32 -11 45 -25z m3254 -31 c12 -15 21
-32 21 -39 0 -7 -9 -24 -21 -39 -27 -34 -81 -36 -103 -4 -51 73 48 151 103 82z
m445 -146 c53 -75 -47 -153 -103 -82 -12 15 -21 32 -21 39 0 7 9 24 21 39 27
34 81 36 103 4z m-4373 -359 c28 -28 22 -76 -12 -102 -45 -33 -99 -1 -99 58 0
59 69 86 111 44z m4569 -1 c25 -28 26 -62 0 -88 -41 -41 -120 -12 -120 45 0
58 79 87 120 43z m624 -99 c50 -39 22 -119 -42 -119 -69 0 -91 98 -28 128 31
15 40 14 70 -9z m-5120 -760 c65 -52 -1 -148 -75 -108 -45 24 -42 95 5 117 31
15 40 14 70 -9z m2338 -86 c22 -20 23 -70 1 -95 -20 -22 -70 -23 -95 -1 -22
20 -23 70 -1 95 20 22 70 23 95 1z m247 -9 c12 -15 21 -32 21 -39 0 -7 -9 -24
-21 -39 -40 -50 -119 -25 -119 39 0 64 79 89 119 39z m-859 -244 c41 -41 13
-110 -45 -110 -24 0 -39 7 -54 26 -12 15 -21 32 -21 39 0 7 9 24 21 39 25 32
70 35 99 6z m1470 0 c41 -41 10 -110 -47 -110 -34 0 -46 8 -62 37 -15 30 -14
36 10 67 25 32 70 35 99 6z m-1766 -631 c13 -7 30 -25 37 -41 10 -25 9 -33 -8
-56 -52 -71 -154 -8 -112 69 8 16 28 30 56 38 1 1 13 -4 27 -10z m682 -12 c48
-42 24 -117 -38 -117 -78 0 -93 106 -18 133 25 9 28 8 56 -16z m667 12 c65
-30 46 -129 -25 -129 -78 0 -93 106 -18 133 8 3 16 6 17 6 1 1 13 -4 26 -10z
m681 -10 c50 -40 25 -119 -39 -119 -64 0 -89 79 -39 119 15 12 32 21 39 21 7
0 24 -9 39 -21z"/>
</g>
</svg>
