<?xml version="1.0" standalone="no"?>
<!DOCTYPE svg PUBLIC "-//W3C//DTD SVG 20010904//EN"
 "http://www.w3.org/TR/2001/REC-SVG-20010904/DTD/svg10.dtd">
<svg version="1.0" xmlns="http://www.w3.org/2000/svg"
 width="740.000000pt" height="740.000000pt" viewBox="0 0 740.000000 740.000000"
 preserveAspectRatio="xMidYMid meet">

<g transform="translate(0.000000,740.000000) scale(0.100000,-0.100000)"
fill="#000000" stroke="none">
<path d="M4068 6208 l-3 -923 -87 -50 -88 -50 0 -197 0 -198 -80 0 -80 0 0
263 -1 262 -69 48 -70 48 0 479 0 479 -85 78 -85 78 0 211 0 211 25 11 c34 16
41 39 20 62 -20 22 -74 27 -93 8 -19 -19 -14 -56 8 -68 19 -10 20 -21 20 -222
l0 -211 85 -79 85 -80 2 -481 3 -482 73 -49 72 -50 0 -258 0 -258 -167 0 -168
1 -68 62 -67 62 0 818 c-1 518 -4 817 -10 817 -6 0 -10 -298 -10 -817 l0 -818
67 -62 68 -62 -130 2 c-126 2 -130 3 -133 25 -2 13 2 23 10 23 7 1 -2 4 -21 8
-19 3 -39 14 -45 24 -9 15 -7 22 13 38 16 13 19 19 8 19 -44 0 -46 -75 -2 -86
18 -4 25 -13 25 -30 0 -25 -1 -25 -86 -22 l-87 3 -63 160 -63 160 0 198 c-1
192 0 199 21 216 37 31 5 70 -46 57 -33 -8 -40 -33 -16 -53 18 -16 20 -30 20
-185 l0 -168 -55 0 -55 0 0 578 0 578 -205 114 -204 115 -1 212 0 212 27 13
c54 26 37 78 -26 78 -62 0 -83 -45 -36 -76 l25 -16 2 -216 3 -216 197 -111
197 -110 1 -577 0 -578 -60 0 -60 0 0 425 c0 414 0 425 20 435 24 13 26 45 4
54 -28 11 -61 6 -75 -10 -12 -14 -10 -19 14 -38 l27 -22 -2 -419 -3 -420 -539
-3 c-494 -2 -540 -1 -551 15 -17 23 -45 10 -45 -22 0 -31 28 -45 42 -22 8 16
57 17 549 17 l540 0 -3 -52 -3 -53 -77 -43 c-55 -31 -78 -50 -78 -63 0 -19 -8
-20 -235 -17 -198 3 -235 1 -235 -11 0 -8 -8 -24 -17 -35 -15 -18 -14 -18 8 2
25 21 31 22 252 22 l227 0 0 -110 0 -110 -504 0 -504 0 -6 25 c-9 36 -43 51
-67 29 -10 -9 -19 -22 -19 -28 0 -6 7 0 16 12 18 26 27 27 48 6 19 -18 21 -65
4 -82 -17 -17 -45 -15 -57 6 -6 9 -11 12 -11 7 -1 -36 63 -47 80 -15 10 20 21
20 515 20 l505 0 0 -38 c0 -36 -2 -38 -50 -55 l-50 -18 -1 -117 c-1 -64 0
-215 1 -334 1 -141 -2 -218 -8 -218 -6 0 -34 43 -64 95 l-53 95 -922 0 c-606
0 -923 -3 -923 -10 0 -6 319 -11 922 -12 l921 -3 50 -85 c28 -47 57 -90 64
-95 10 -8 13 -30 11 -80 l-3 -70 -75 -3 -75 -3 -48 -70 -48 -69 -479 0 -479 0
-78 -85 -78 -85 -210 0 -210 0 -17 30 c-20 35 -38 38 -62 11 -24 -26 -18 -79
11 -98 20 -14 24 -13 46 11 l24 26 209 0 209 0 78 85 78 85 482 2 482 3 50 73
49 73 71 -3 70 -3 3 -232 2 -233 -587 -2 c-324 -2 -636 -3 -695 -3 l-108 0 -9
-27 c-17 -49 -71 -31 -71 23 0 37 25 62 50 49 10 -5 21 -15 23 -22 3 -8 6 -8
6 -2 1 6 -8 19 -18 28 -39 36 -85 -24 -65 -83 13 -35 64 -37 79 -3 l10 22 692
0 693 0 0 -199 0 -199 47 -20 48 -20 -223 -1 c-218 -1 -224 0 -241 21 -31 37
-70 5 -57 -46 8 -33 33 -40 53 -16 16 19 31 20 245 20 l228 0 0 -55 0 -55
-638 0 -638 0 -114 -205 -115 -205 -212 0 -212 0 -13 27 c-26 54 -78 37 -78
-26 0 -62 45 -83 76 -36 l16 25 216 2 216 3 111 197 110 197 638 1 637 0 0
-60 0 -60 -485 0 c-474 0 -485 0 -495 20 -13 24 -45 26 -54 4 -11 -28 -6 -61
10 -75 14 -11 19 -10 34 9 l18 22 475 2 c261 0 479 -2 486 -6 6 -4 11 -23 11
-41 0 -28 6 -37 28 -49 15 -8 33 -26 40 -40 8 -19 20 -25 49 -28 l38 -3 3
-483 2 -484 -22 -18 c-19 -15 -21 -20 -9 -34 22 -26 85 -18 89 11 2 14 -4 26
-17 33 -21 11 -21 16 -21 495 l0 485 60 0 60 0 0 -637 0 -638 -198 -111 -197
-111 -3 -215 -2 -216 -25 -16 c-46 -30 -23 -80 36 -78 62 2 80 51 29 77 l-30
16 2 212 3 212 203 114 202 115 0 638 0 638 55 0 55 0 0 -228 c0 -214 -1 -229
-20 -245 -24 -20 -17 -45 16 -53 51 -13 83 26 46 57 -21 17 -22 23 -21 241 l1
223 20 -47 20 -48 199 0 199 0 0 -693 0 -692 -22 -10 c-34 -15 -32 -66 3 -79
59 -20 119 26 83 65 -9 10 -23 19 -31 19 -11 0 -13 120 -13 695 l0 695 233 -2
232 -3 3 -70 3 -70 -76 -53 -75 -52 0 -479 0 -479 -85 -80 -85 -79 0 -211 c0
-201 -1 -212 -20 -222 -22 -12 -27 -49 -8 -68 17 -17 74 -15 92 4 24 23 19 43
-14 62 l-30 17 0 209 0 209 85 79 85 80 0 478 0 479 69 48 70 48 3 75 3 75 70
3 c53 2 72 -1 80 -12 6 -8 49 -37 96 -63 l84 -49 3 -922 c1 -603 6 -922 12
-922 7 0 10 317 10 923 l0 922 -95 53 c-52 30 -95 58 -95 64 0 6 77 9 218 8
119 -1 269 -2 333 -1 l116 1 21 50 c20 48 22 50 61 50 l41 0 0 -501 0 -501
-25 -20 c-14 -11 -25 -27 -25 -37 0 -19 19 -41 34 -41 6 0 3 5 -6 11 -21 12
-23 40 -6 57 17 17 64 15 82 -4 21 -21 20 -30 -6 -48 -12 -9 -17 -16 -11 -16
18 0 44 31 41 49 -2 9 -18 23 -35 31 l-33 15 0 503 0 502 110 0 110 0 0 -235
c0 -181 3 -235 13 -235 9 0 11 52 9 235 -3 229 -2 235 17 235 14 0 32 22 63
77 l44 78 52 3 52 3 0 -540 c0 -492 -1 -541 -17 -549 -26 -15 -8 -42 27 -42
23 0 30 4 30 20 0 11 -7 23 -15 26 -13 5 -15 75 -15 545 l0 539 426 0 426 0
18 -22 c15 -19 20 -21 34 -9 26 22 18 85 -11 89 -14 2 -26 -4 -33 -17 -11 -21
-17 -21 -435 -21 l-425 0 0 60 0 60 578 0 577 -1 111 -197 111 -197 215 -3
216 -2 16 -25 c31 -47 76 -26 76 36 0 63 -52 80 -78 26 l-13 -27 -212 0 -212
0 -114 205 -114 205 -579 0 -578 0 0 55 0 55 168 0 c155 0 169 -2 185 -20 20
-24 45 -17 53 16 13 51 -26 83 -57 46 -17 -21 -24 -22 -216 -21 l-198 0 -160
63 -160 63 -3 87 c-3 85 -3 86 22 86 17 0 26 -7 30 -25 11 -44 86 -42 86 2 0
11 -6 8 -19 -8 -33 -40 -71 -2 -57 56 9 33 37 41 58 15 10 -12 18 -18 18 -12
0 16 -29 42 -46 42 -8 0 -23 -14 -32 -30 -11 -21 -24 -30 -37 -28 -19 3 -20
11 -22 133 l-2 130 62 -68 62 -67 815 0 815 0 10 -22 c15 -34 66 -32 79 3 20
59 -26 119 -65 83 -10 -9 -19 -23 -19 -31 0 -11 -140 -13 -819 -13 l-818 0
-62 69 -62 70 3 163 3 163 255 3 256 2 52 -75 52 -75 479 0 479 0 80 -85 81
-85 210 0 c200 0 211 -1 221 -20 12 -22 49 -27 68 -8 19 19 14 73 -8 93 -24
21 -47 14 -60 -20 l-10 -25 -212 0 -213 0 -78 85 -78 85 -479 0 -479 0 -48 70
-48 69 -260 3 -260 3 0 75 0 75 195 3 195 3 51 87 50 87 922 3 c603 1 922 6
922 12 0 7 -317 10 -922 10 l-923 0 -53 -95 -54 -95 -194 0 -194 0 0 65 0 64
122 3 121 3 51 113 c28 63 59 118 69 123 21 12 23 65 2 73 -18 6 -38 -26 -29
-48 3 -8 -18 -67 -47 -130 l-52 -116 -119 0 -118 0 2 216 3 216 59 24 c33 13
72 24 87 24 15 0 32 6 36 13 4 8 52 31 106 52 85 33 97 40 97 61 l0 24 445 0
c434 0 445 0 455 -20 17 -32 81 -21 80 15 0 5 -5 2 -11 -7 -12 -21 -40 -23
-57 -6 -17 17 -15 64 4 82 21 21 30 20 48 -6 9 -12 16 -18 16 -12 0 6 -9 19
-19 28 -24 22 -58 7 -67 -29 l-6 -25 -444 0 -444 0 0 110 0 110 175 0 c133 0
175 3 175 13 0 9 -40 11 -175 9 l-176 -3 3 113 3 113 395 3 c356 2 396 1 407
-14 18 -25 43 -10 43 26 0 23 -4 30 -20 30 -10 0 -23 -7 -27 -15 -8 -13 -60
-15 -403 -13 l-395 3 -3 395 c-2 343 0 395 13 403 8 4 15 17 15 27 0 16 -7 20
-30 20 -36 0 -51 -25 -26 -43 15 -11 16 -51 14 -407 l-3 -395 -113 -3 -113 -3
3 176 c3 146 1 175 -11 175 -8 0 -24 8 -35 17 -18 15 -18 14 2 -8 21 -24 22
-33 22 -192 l0 -167 -110 0 -110 0 0 443 0 443 30 11 c16 6 33 19 36 27 7 17
-21 56 -40 56 -6 0 0 -7 12 -16 26 -18 27 -27 6 -48 -18 -19 -65 -21 -82 -4
-17 17 -15 45 6 57 9 6 12 11 6 11 -36 1 -45 -60 -11 -82 l22 -15 0 -439 0
-439 -26 -3 c-24 -3 -31 -14 -64 -100 -20 -53 -43 -101 -51 -105 -8 -4 -14
-20 -14 -35 0 -15 -10 -55 -23 -87 l-23 -60 -217 -3 -217 -2 0 119 0 118 115
52 c63 28 121 48 129 45 21 -8 56 14 50 31 -9 21 -53 18 -72 -5 -10 -11 -66
-41 -127 -68 l-110 -49 -3 -121 -3 -122 -64 0 -65 0 0 193 0 193 95 55 95 54
0 923 c0 605 -3 922 -10 922 -6 0 -11 -319 -12 -922z m-1428 -1153 l0 -115
-140 0 c-129 0 -140 1 -140 18 0 13 25 32 80 63 l80 44 0 52 0 53 60 0 60 0 0
-115z m128 -84 c2 -198 0 -210 -35 -211 -7 0 -22 28 -34 62 -13 34 -24 57 -26
51 -2 -6 5 -34 17 -62 22 -57 21 -66 -9 -74 -19 -5 -20 2 -20 215 l-1 219 53
-3 52 -3 3 -194z m1917 134 l0 -60 -53 -28 c-29 -16 -55 -27 -57 -25 -1 1 9
35 24 73 16 39 31 78 34 88 5 12 15 17 29 15 21 -3 23 -8 23 -63z m235 -50 l0
-114 -87 -3 -88 -3 -55 -144 c-54 -141 -56 -145 -95 -162 l-40 -18 -3 165 c-1
93 2 172 7 183 6 10 39 31 75 47 l65 29 1 68 0 67 110 0 110 0 0 -115z m250 0
l0 -115 -115 0 -115 0 0 115 0 115 115 0 115 0 0 -115z m-2315 -132 l53 -138
91 -3 91 -3 0 -114 0 -115 -75 0 -75 0 0 44 c0 24 3 46 8 49 4 2 2 2 -5 1 -7
-2 -22 5 -34 15 -20 16 -20 18 -4 34 9 9 12 17 6 17 -6 0 -15 -9 -21 -19 -8
-16 -5 -23 15 -39 19 -16 25 -29 25 -61 l0 -42 -66 3 -66 3 -34 90 c-19 50
-34 93 -34 97 0 3 14 11 30 17 l30 10 0 152 c0 84 3 150 6 146 3 -3 30 -68 59
-144z m-215 -102 l0 -98 -121 -47 c-67 -26 -122 -46 -124 -44 -26 30 -35 77
-35 178 l0 110 140 0 140 0 0 -99z m2280 14 c0 -47 -1 -85 -3 -85 -1 0 -61
-22 -132 -50 -71 -27 -130 -48 -132 -47 -2 2 8 30 21 63 13 32 35 92 50 132
l28 72 84 0 84 0 0 -85z m250 -25 l0 -110 -65 0 -65 0 -34 -69 c-19 -38 -42
-71 -51 -75 -9 -3 -90 -6 -180 -6 l-164 0 18 43 18 42 146 55 147 55 0 88 0
87 115 0 115 0 0 -110z m-640 -74 l0 -134 -51 -17 c-28 -9 -48 -19 -45 -22 3
-3 23 2 46 11 50 20 50 20 50 -3 0 -18 -11 -19 -201 -20 l-201 -1 -39 27 -39
28 0 87 0 88 222 2 221 3 15 43 c7 23 16 42 18 42 2 0 4 -60 4 -134z m-1055
-43 c77 -70 95 -91 95 -115 l0 -28 -235 0 -235 0 0 108 c0 60 3 112 7 115 3 4
66 7 139 7 l133 0 96 -87z m243 -30 l3 -113 -66 0 c-65 0 -65 0 -65 28 0 23
-17 43 -89 108 -49 43 -90 82 -90 87 -1 4 68 6 152 5 l152 -3 3 -112z m170 0
l3 -113 -81 0 -80 0 0 108 c0 60 3 112 7 116 4 4 39 5 78 4 l70 -3 3 -112z
m142 29 l0 -89 37 -26 38 -27 -103 0 -102 0 0 115 0 115 65 0 65 0 0 -88z
m-1297 6 c8 -24 24 -67 36 -95 l21 -53 -65 0 -65 0 0 83 c0 77 2 85 23 95 33
16 34 15 50 -30z m-93 -68 l0 -80 -103 0 -103 0 -17 34 -16 34 92 36 c51 19
103 40 117 45 14 5 26 10 28 10 1 1 2 -35 2 -79z m2528 29 c-2 -16 -23 -28
-88 -54 -47 -18 -86 -32 -87 -31 -2 2 8 26 22 54 l25 52 66 0 c61 0 65 -1 62
-21z m-2788 -26 c0 -7 -4 -13 -10 -13 -5 0 -10 12 -10 28 0 21 2 24 10 12 5
-8 10 -21 10 -27z m2240 -22 c0 -32 -21 -61 -45 -61 -52 0 -21 66 33 69 6 1
12 -3 12 -8z m-2210 -41 l20 -40 105 0 105 0 0 -240 0 -240 -134 0 c-113 0
-135 2 -140 16 -8 21 -8 529 1 537 13 14 23 6 43 -33z m-70 -212 l0 -233 -35
75 c-22 48 -32 83 -28 98 3 14 -1 30 -11 41 -14 15 -16 37 -14 121 l3 103 35
13 c19 7 38 13 43 13 4 1 7 -104 7 -231z m481 107 l23 -65 51 0 c47 0 59 -6
155 -73 72 -50 106 -80 108 -95 3 -22 2 -22 -120 -22 l-123 0 -60 -80 -60 -80
-67 0 -68 0 0 240 0 240 69 0 69 0 23 -65z m109 10 l0 -55 -40 0 c-36 0 -41 3
-54 33 -33 80 -34 77 33 77 l61 0 0 -55z m255 3 c41 -29 75 -55 75 -58 0 -3
-72 -4 -160 -2 l-160 3 0 54 0 55 85 0 85 0 75 -52z m385 -2 l0 -55 -136 -3
-137 -3 -75 52 c-41 29 -77 55 -80 58 -3 3 92 5 211 5 l217 0 0 -54z m150 -3
l0 -58 -65 3 -65 4 0 54 0 54 65 0 65 0 0 -57z m170 2 l0 -55 -64 0 c-91 0
-96 3 -96 61 l0 49 80 0 80 0 0 -55z m273 30 c18 -16 27 -34 27 -55 l0 -30
-145 0 -145 0 0 55 0 55 118 0 c109 -1 119 -2 145 -25z m237 -30 l0 -55 -95 0
-95 0 0 32 c0 23 -8 39 -27 55 l-28 22 123 1 122 0 0 -55z m130 0 l0 -55 -55
0 -55 0 0 55 0 55 55 0 55 0 0 -55z m60 50 c0 -2 -7 -23 -16 -45 -9 -23 -14
-43 -11 -46 2 -3 13 18 23 46 l18 50 135 -1 c134 0 140 -3 69 -29 l-28 -10 0
-220 0 -220 -87 0 -88 0 -28 39 -27 39 1 201 c1 190 2 201 20 201 10 0 19 -2
19 -5z m-1254 -151 c33 -26 34 -29 34 -95 l0 -69 -100 0 c-98 0 -100 0 -100
23 0 18 -22 38 -100 92 -55 38 -100 70 -100 72 0 2 75 3 166 3 163 0 166 0
200 -26z m234 -69 l0 -95 -90 0 -90 0 0 69 c0 67 -1 71 -32 95 l-33 26 123 0
122 0 0 -95z m265 68 l55 -27 0 -68 0 -68 -150 0 -150 0 0 95 0 95 95 0 c83 0
102 -3 150 -27z m55 11 c0 -13 -6 -15 -27 -9 -46 11 -51 25 -10 25 27 0 37 -4
37 -16z m300 -79 l0 -95 -50 0 c-48 0 -50 1 -50 29 0 26 -7 32 -95 72 -80 36
-95 46 -95 66 0 23 0 23 145 23 l145 0 0 -95z m210 0 l0 -95 -95 0 -95 0 0 95
0 95 95 0 95 0 0 -95z m130 -27 l-1 -123 -22 28 c-16 19 -32 27 -55 27 l-32 0
0 95 0 95 55 0 55 0 0 -122z m-537 22 c68 -31 76 -38 77 -62 l0 -28 -85 0 -85
0 0 66 c0 36 4 64 9 62 4 -1 43 -19 84 -38z m-1693 -116 c38 -83 40 -91 40
-185 l0 -99 -45 0 -45 0 0 185 c0 102 2 185 5 185 3 0 23 -39 45 -86z m860
-44 c0 -35 -4 -50 -14 -50 -7 0 -32 -43 -56 -95 l-43 -95 -193 0 -194 0 0 65
0 65 68 0 67 0 60 80 60 80 123 0 122 0 0 -50z m210 0 l0 -50 -100 0 -100 0 0
50 0 50 100 0 100 0 0 -50z m200 0 l0 -50 -90 0 -90 0 0 50 0 50 90 0 90 0 0
-50z m320 0 l0 -50 -150 0 -150 0 0 50 0 50 150 0 150 0 0 -50z m180 0 l0 -50
-85 0 -85 0 0 50 0 50 85 0 85 0 0 -50z m120 0 l0 -50 -50 0 -50 0 0 50 0 50
50 0 50 0 0 -50z m210 -95 c0 -145 0 -145 -23 -145 -20 0 -30 15 -66 95 -40
88 -46 95 -72 95 -28 0 -29 2 -29 50 l0 50 95 0 95 0 0 -145z m108 115 c20
-26 22 -42 22 -145 l0 -115 -55 0 -55 0 0 145 0 145 33 0 c25 0 39 -7 55 -30z
m184 -130 l89 0 -3 -62 -3 -63 -112 -3 -113 -3 0 103 0 103 27 -38 26 -37 89
0z m-1534 -42 l-3 -83 -47 -3 c-27 -2 -48 0 -48 3 0 16 82 165 91 165 6 0 9
-31 7 -82z m212 -3 l0 -85 -100 0 -100 0 0 85 0 85 100 0 100 0 0 -85z m200 0
l0 -85 -90 0 -90 0 0 85 0 85 90 0 90 0 0 -85z m320 0 l0 -85 -150 0 -150 0 0
85 0 85 150 0 150 0 0 -85z m180 0 l0 -85 -85 0 -85 0 0 85 0 85 85 0 85 0 0
-85z m120 0 l0 -85 -50 0 -50 0 0 85 0 85 50 0 50 0 0 -85z m110 8 c19 -41 37
-80 38 -84 2 -5 -26 -9 -62 -9 l-66 0 0 85 0 85 28 0 c24 -1 31 -9 62 -77z
m-1660 -29 l0 -64 -140 0 -140 0 0 68 0 67 140 -3 140 -3 0 -65z m-300 -154
l0 -80 -45 0 -45 0 0 73 c0 41 3 77 7 80 3 4 24 7 45 7 l38 0 0 -80z m300 0
l0 -80 -140 0 -140 0 0 80 0 80 140 0 140 0 0 -80z m390 68 c0 -6 -14 -42 -31
-80 l-32 -68 -153 0 -154 0 0 80 0 80 185 0 c135 0 185 -3 185 -12z m128 -140
l3 -148 -183 0 -183 0 -67 -72 -67 -73 -1 138 0 137 158 0 159 0 38 85 38 86
51 -3 51 -3 3 -147z m212 2 l0 -150 -100 0 -100 0 0 150 0 150 100 0 100 0 0
-150z m200 0 l0 -150 -90 0 -90 0 0 150 0 150 90 0 90 0 0 -150z m318 -2 l3
-148 -151 0 -150 0 0 150 0 151 148 -3 147 -3 3 -147z m182 2 l0 -150 -85 0
-85 0 0 143 c0 79 3 147 7 150 3 4 42 7 85 7 l78 0 0 -150z m120 0 l0 -150
-50 0 -50 0 0 150 0 150 50 0 50 0 0 -150z m183 95 c24 -48 27 -67 27 -150 l0
-95 -95 0 -95 0 0 150 0 150 68 0 68 0 27 -55z m27 18 c0 -41 -14 -36 -25 10
-6 21 -4 27 9 27 12 0 16 -10 16 -37z m130 -43 l0 -80 -49 0 c-58 0 -61 5 -61
96 l0 64 55 0 55 0 0 -80z m245 0 l0 -75 -112 -3 -113 -3 0 81 0 81 113 -3
112 -3 0 -75z m-2435 -325 l0 -235 -45 0 -45 0 0 235 0 235 45 0 45 0 0 -235z
m300 84 l0 -150 -77 -85 -77 -84 -63 0 -63 0 0 235 0 235 140 0 140 0 0 -151z
m1890 86 l0 -65 -55 0 -55 0 0 65 0 65 55 0 55 0 0 -65z m248 -92 c1 -84 -1
-153 -5 -152 -5 0 -43 41 -87 90 -65 73 -84 89 -107 89 -29 0 -29 0 -29 65 l0
66 113 -3 112 -3 3 -152z m-1618 -83 l0 -89 -57 -3 -58 -3 -98 -142 -98 -143
-95 0 -94 0 0 161 0 161 66 74 66 74 184 0 184 0 0 -90z m210 0 l0 -90 -100 0
-100 0 0 90 0 90 100 0 100 0 0 -90z m200 0 l0 -90 -90 0 -90 0 0 90 0 90 90
0 90 0 0 -90z m320 0 l0 -90 -150 0 -150 0 0 90 0 90 150 0 150 0 0 -90z m180
0 l0 -90 -85 0 -85 0 0 90 0 90 85 0 85 0 0 -90z m120 0 l0 -90 -50 0 -50 0 0
90 0 90 50 0 50 0 0 -90z m210 -32 l0 -123 -26 33 c-24 31 -28 32 -95 32 l-69
0 0 90 0 90 95 0 95 0 0 -122z m130 -95 c0 -119 -4 -213 -8 -207 -5 5 -30 39
-55 76 l-47 67 0 140 0 141 55 0 55 0 0 -217z m164 121 l87 -95 -3 -137 -3
-137 -112 -3 -113 -3 0 236 0 235 28 0 c24 0 45 -18 116 -96z m-2054 -229 l0
-145 -40 0 c-25 0 -41 5 -41 13 -1 6 -4 -3 -8 -22 -3 -19 -14 -39 -24 -45 -15
-9 -22 -7 -38 13 -12 14 -19 18 -19 9 0 -21 21 -38 48 -38 17 0 27 8 35 30 10
26 16 30 49 30 l38 0 0 -152 0 -153 -137 5 -138 5 -3 218 -2 217 63 0 63 0 73
80 c40 44 74 80 77 80 2 0 4 -65 4 -145z m520 25 c0 -55 -4 -100 -9 -100 -5 0
-17 -13 -28 -30 -10 -16 -58 -57 -106 -90 -69 -49 -87 -66 -87 -86 0 -24 -2
-24 -84 -24 -75 0 -85 2 -91 19 -8 28 -36 35 -54 14 -15 -16 -15 -16 1 -4 19
14 33 9 48 -18 7 -14 4 -26 -11 -47 l-21 -29 26 28 c23 25 31 27 106 27 l80 0
0 -81 c0 -75 -2 -83 -25 -101 -20 -16 -23 -23 -15 -39 6 -10 15 -19 21 -19 6
0 3 7 -6 16 -12 12 -13 19 -4 30 28 34 95 2 68 -33 -12 -17 -12 -17 4 -2 21
18 14 46 -14 54 -17 6 -19 16 -19 91 0 82 0 84 24 84 20 0 37 18 86 87 33 48
74 96 90 106 17 11 30 23 30 28 0 5 45 9 100 9 l101 0 -3 -57 -3 -58 -137 -94
-138 -95 0 -98 0 -98 -195 0 c-182 0 -196 1 -215 20 -19 19 -20 33 -20 215 l0
195 98 0 98 0 98 140 97 140 54 0 55 0 0 -100z m210 0 l0 -100 -100 0 -100 0
0 100 0 100 100 0 100 0 0 -100z m200 0 l0 -100 -90 0 -90 0 0 100 0 100 90 0
90 0 0 -100z m320 0 l0 -100 -150 0 -150 0 0 100 0 100 150 0 150 0 0 -100z
m180 0 l0 -100 -85 0 -85 0 0 100 0 100 85 0 85 0 0 -100z m120 0 l0 -100 -50
0 -50 0 0 100 0 100 50 0 50 0 0 -100z m184 65 c26 -34 26 -34 24 -201 l-3
-166 -69 101 c-54 80 -74 101 -92 101 -24 0 -24 2 -24 100 l0 100 69 0 c67 0
69 -1 95 -35z m2240 -51 c32 -32 15 -94 -26 -94 -38 0 -43 88 -6 103 7 3 14 6
15 6 1 1 9 -6 17 -15z m-2136 -99 l52 -75 0 -85 0 -85 -55 0 -54 0 -3 160 c-2
88 -1 160 2 160 3 0 29 -34 58 -75z m-2138 -165 c0 -115 -4 -210 -9 -210 -5 0
-25 7 -45 15 l-36 15 0 195 0 195 45 0 45 0 0 -210z m1230 -44 l0 -184 -74
-66 -73 -66 -162 0 -161 0 0 94 0 94 143 99 142 98 3 58 3 57 89 0 90 0 0
-184z m318 128 l3 -51 -86 -39 -85 -38 0 -158 0 -158 -137 0 -138 1 73 67 73
67 -1 183 0 183 148 -3 147 -3 3 -51z m182 44 c-1 -10 -98 -62 -161 -86 -10
-4 -12 81 -2 91 3 4 42 7 85 7 56 0 78 -4 78 -12z m120 -111 l0 -122 -80 -60
-79 -60 -1 -67 0 -68 -65 0 -65 0 0 193 0 193 95 43 c53 24 95 50 95 57 0 10
14 14 50 14 l50 0 0 -123z m137 14 c68 -97 73 -108 73 -156 l0 -53 65 -23 65
-23 0 -68 0 -68 -240 0 -240 0 0 68 0 67 80 60 80 60 0 123 c0 122 0 123 22
120 16 -2 45 -36 95 -107z m455 -52 l3 -91 139 -54 c76 -29 141 -56 144 -59 3
-3 -63 -5 -147 -5 l-152 0 -10 -30 c-6 -16 -14 -30 -17 -30 -4 0 -47 15 -97
34 l-90 34 -3 66 -3 66 41 0 c30 0 47 -6 63 -23 12 -13 16 -16 10 -7 -30 39
-1 96 35 69 16 -12 16 -12 1 4 -18 21 -46 14 -54 -14 -5 -15 -16 -19 -51 -19
l-44 0 0 75 0 75 115 0 114 0 3 -91z m-1754 2 c-31 -46 -48 -61 -63 -59 -11 2
-21 12 -23 24 -2 16 12 30 60 62 34 23 64 40 66 38 1 -2 -16 -31 -40 -65z
m862 -156 l0 -185 -80 0 -80 0 0 154 0 153 68 31 c37 17 73 31 80 31 9 1 12
-42 12 -184z m640 24 c0 -67 3 -66 -77 -33 -30 13 -33 18 -33 54 l0 40 55 0
55 0 0 -61z m168 -136 c48 -17 46 -14 30 -48 -11 -24 -15 -25 -95 -25 l-83 0
0 65 0 65 53 -21 c28 -12 71 -28 95 -36z m-2062 13 c13 -55 5 -57 -90 -20 -49
19 -94 33 -99 31 -5 -1 36 -20 92 -41 55 -21 101 -42 101 -47 0 -5 -63 -9
-140 -9 l-140 0 0 53 0 54 135 2 134 2 7 -25z m2532 -33 l3 -53 -219 1 c-213
0 -220 1 -215 20 8 30 17 31 74 9 28 -12 56 -19 62 -17 6 2 -17 13 -51 26 -63
22 -67 27 -56 55 6 14 30 16 203 14 l196 -3 3 -52z m-2528 -213 l0 -140 -84 0
c-146 0 -196 51 -196 200 l0 80 140 0 140 0 0 -140z m76 39 c21 -56 40 -97 41
-92 2 5 -12 50 -31 99 -37 95 -35 103 20 90 l25 -7 -2 -134 -2 -135 -54 0 -53
0 0 140 c0 77 4 140 9 140 5 0 26 -46 47 -101z m374 63 c0 -29 -5 -40 -22 -47
-47 -22 -49 -75 -2 -84 16 -3 14 0 -6 17 -20 17 -23 24 -14 39 13 21 36 27 69
19 33 -9 41 -37 15 -58 -12 -10 -18 -18 -12 -18 16 0 42 29 42 46 0 8 -13 23
-30 32 -25 14 -30 23 -30 54 l0 38 310 0 310 0 0 -140 0 -140 -235 0 -235 0 0
63 0 62 76 69 c41 37 73 71 70 73 -3 3 -41 -28 -85 -68 l-81 -73 0 -63 0 -63
-217 2 -218 3 -5 138 -5 137 153 0 152 0 0 -38z m800 -102 l0 -140 -80 0 -80
0 0 140 0 140 80 0 80 0 0 -140z m142 0 l3 -140 -67 0 -68 0 0 140 0 140 64 0
65 0 3 -140z m498 35 l0 -105 41 -20 c76 -39 51 -45 -222 -48 -140 -1 -264 0
-276 3 -22 5 -23 9 -23 140 l0 135 240 0 240 0 0 -105z m177 93 c-3 -7 -24
-61 -47 -120 l-42 -107 -34 16 -34 17 0 103 0 103 81 0 c61 0 80 -3 76 -12z
m213 -128 l0 -140 -105 0 c-118 0 -191 20 -180 49 3 9 24 64 47 124 l41 107
98 0 99 0 0 -140z m250 80 l0 -60 -53 0 -53 0 -43 -80 c-30 -58 -48 -80 -62
-80 -18 0 -19 8 -19 140 l0 140 115 0 115 0 0 -60z m-515 -210 c3 -5 -3 -10
-14 -10 -12 0 -21 5 -21 10 0 6 6 10 14 10 8 0 18 -4 21 -10z m-1425 -75 l0
-45 -195 0 -195 0 -15 36 c-8 20 -15 40 -15 45 0 5 95 9 210 9 l210 0 0 -45z
m490 0 l0 -45 -235 0 -235 0 0 45 0 45 235 0 235 0 0 -45z m170 0 l0 -45 -80
0 -80 0 0 45 0 45 80 0 80 0 0 -45z m294 5 c47 -22 86 -42 86 -45 0 -3 -83 -5
-185 -5 l-185 0 0 45 0 45 99 0 c94 0 102 -2 185 -40z m406 31 c0 -5 -7 -25
-15 -45 l-15 -36 -103 0 c-74 1 -107 5 -121 15 -11 8 -28 13 -37 10 -9 -3 -52
10 -95 29 l-79 35 233 1 c127 0 232 -4 232 -9z m-1320 -1491 c5 0 14 -9 20
-19 20 -38 -55 -72 -88 -39 -29 29 6 76 46 62 8 -2 18 -4 22 -4z"/>
<path d="M2968 4699 c7 -9 10 -25 6 -35 -5 -18 -5 -18 6 0 10 15 9 21 -6 35
-16 14 -17 14 -6 0z"/>
<path d="M2487 3142 c-10 -10 -17 -22 -17 -26 0 -5 8 2 18 14 16 20 21 21 43
10 22 -12 23 -12 10 3 -17 22 -34 21 -54 -1z"/>
<path d="M2939 6871 c19 -3 39 -14 45 -24 9 -15 7 -22 -13 -38 -25 -21 -21
-25 10 -9 11 6 19 21 19 35 0 28 -26 46 -67 44 -26 -2 -26 -2 6 -8z"/>
<path d="M2882 6858 c-18 -18 -15 -35 13 -56 l25 -20 0 -269 0 -269 -115 -79
c-63 -43 -113 -80 -111 -82 2 -3 59 32 125 76 l121 81 0 274 0 273 -25 11
c-31 14 -41 37 -25 57 15 18 9 20 -8 3z"/>
<path d="M3713 6833 c-20 -7 -15 -41 7 -53 19 -10 20 -21 20 -148 l0 -138 -75
-53 c-41 -30 -73 -56 -71 -59 3 -2 39 20 80 49 l76 54 0 142 c0 132 1 143 20
153 52 28 -1 76 -57 53z"/>
<path d="M4116 6663 c12 -10 56 -42 98 -71 l76 -52 0 -399 c0 -391 0 -400 -20
-406 -24 -8 -42 -38 -34 -58 6 -17 61 -43 71 -33 3 3 -1 6 -9 6 -9 0 -26 9
-39 19 -23 19 -24 19 -5 40 11 12 29 21 40 21 l21 0 -3 407 -3 408 -96 65
c-95 65 -137 88 -97 53z"/>
<path d="M3198 6629 c-30 -17 -17 -80 17 -79 5 0 2 5 -7 11 -21 12 -23 40 -6
57 17 17 64 15 82 -4 21 -21 20 -30 -6 -48 -12 -9 -18 -16 -12 -16 6 0 19 9
28 19 40 44 -39 94 -96 60z"/>
<path d="M3798 6329 c-22 -12 -23 -45 -3 -53 13 -5 15 -54 15 -358 l-1 -353
-105 -74 c-58 -40 -103 -75 -100 -78 2 -3 54 30 115 74 l111 78 0 351 c0 343
0 352 20 357 26 7 26 43 1 57 -24 12 -31 12 -53 -1z"/>
<path d="M3098 6091 l-108 -66 0 -230 c0 -229 0 -230 -22 -240 -47 -21 -23
-85 31 -85 31 0 71 25 71 45 0 17 -27 45 -43 45 -6 0 -1 -7 11 -16 26 -18 27
-27 6 -48 -32 -33 -105 -9 -90 29 3 8 17 20 31 27 l25 11 2 231 3 230 85 53
c47 30 92 58 100 62 8 5 13 11 10 14 -3 2 -53 -26 -112 -62z"/>
<path d="M4338 5720 c17 -20 15 -47 -5 -59 -10 -6 -13 -11 -7 -11 32 -1 45 50
17 71 -15 11 -16 11 -5 -1z"/>
<path d="M4895 5580 c-3 -6 1 -7 9 -4 18 7 21 14 7 14 -6 0 -13 -4 -16 -10z"/>
<path d="M4959 5578 c7 -10 11 -25 7 -33 -3 -9 -2 -13 4 -10 15 10 12 31 -7
46 -16 13 -17 12 -4 -3z"/>
<path d="M1819 4963 c-13 -16 -12 -17 3 -4 10 7 25 11 33 7 9 -3 13 -2 10 4
-10 15 -31 12 -46 -7z"/>
<path d="M5535 4970 c-3 -6 1 -7 10 -4 8 4 23 0 33 -7 15 -13 16 -12 3 4 -15
19 -36 22 -46 7z"/>
<path d="M3130 4912 c20 -16 21 -21 10 -43 -12 -22 -12 -23 3 -10 10 7 17 19
17 27 0 15 -27 44 -42 44 -6 0 0 -8 12 -18z"/>
<path d="M1810 4911 c0 -6 4 -13 10 -16 6 -3 7 1 4 9 -7 18 -14 21 -14 7z"/>
<path d="M5576 4903 c-6 -14 -5 -15 5 -6 7 7 10 15 7 18 -3 3 -9 -2 -12 -12z"/>
<path d="M5530 4906 c0 -2 8 -10 18 -17 15 -13 16 -12 3 4 -13 16 -21 21 -21
13z"/>
<path d="M1679 4343 c-11 -15 -11 -16 1 -5 20 17 47 15 59 -5 6 -10 11 -13 11
-7 1 32 -50 45 -71 17z"/>
<path d="M5662 4348 c-7 -7 -12 -17 -12 -22 0 -6 5 -3 11 7 12 20 39 22 59 5
12 -11 12 -10 1 5 -16 20 -42 22 -59 5z"/>
<path d="M1260 4312 l-405 -3 -68 -101 c-37 -55 -66 -102 -64 -105 3 -2 34 38
69 89 l65 93 401 3 c394 2 401 2 407 -18 8 -24 38 -42 58 -34 17 6 43 61 33
71 -3 3 -6 -1 -6 -9 0 -9 -9 -26 -19 -39 -19 -23 -20 -23 -39 -5 -12 10 -22
28 -24 40 l-3 21 -405 -3z"/>
<path d="M5730 4293 c0 -25 -27 -56 -44 -50 -6 2 -19 19 -28 38 -10 19 -18 29
-18 22 0 -21 22 -62 37 -67 20 -8 50 10 58 34 6 20 13 20 408 18 l402 -3 63
-93 c35 -51 66 -91 69 -89 2 3 -26 50 -64 106 l-68 100 -408 3 -407 3 0 -22z"/>
<path d="M1070 3854 c-10 -11 -11 -23 -4 -42 11 -31 43 -41 56 -18 8 14 48 16
361 16 l352 -1 74 -105 c40 -58 75 -103 78 -100 3 2 -30 54 -74 115 l-78 111
-351 0 c-343 0 -352 0 -357 20 -6 24 -39 26 -57 4z"/>
<path d="M6275 3851 c-6 -21 -12 -21 -358 -21 l-352 -1 -78 -111 c-43 -60 -76
-112 -74 -114 2 -3 38 42 78 98 l74 103 353 3 c307 2 353 0 358 -13 10 -24 43
-18 56 11 14 31 1 57 -30 62 -13 2 -22 -4 -27 -17z"/>
<path d="M564 3766 c-9 -38 -1 -61 23 -64 14 -2 27 4 35 17 12 20 22 21 148
21 l136 0 53 -75 c30 -41 56 -73 59 -71 2 3 -20 39 -49 80 l-54 76 -142 0
c-132 0 -143 1 -153 20 -15 28 -48 26 -56 -4z"/>
<path d="M6780 3770 c-10 -19 -21 -20 -153 -20 l-142 0 -54 -76 c-29 -41 -51
-77 -49 -79 2 -3 29 29 59 70 l54 74 137 1 c129 0 138 -1 148 -21 7 -13 19
-19 33 -17 24 3 32 26 23 64 -8 30 -41 32 -56 4z"/>
<path d="M1308 3100 l67 -110 230 0 c229 0 230 0 240 -22 21 -47 85 -23 85 31
0 31 -25 71 -45 71 -17 0 -45 -27 -45 -43 0 -6 7 -1 16 11 18 26 27 27 48 6
33 -32 9 -105 -29 -90 -8 3 -20 17 -27 31 l-11 25 -231 0 -231 1 -59 99 c-33
55 -63 100 -67 100 -4 0 23 -49 59 -110z"/>
<path d="M6085 3110 l-60 -100 -231 0 -231 0 -11 -25 c-7 -14 -19 -28 -27 -31
-38 -15 -62 58 -29 90 21 21 30 20 48 -6 9 -12 16 -17 16 -11 0 16 -28 43 -45
43 -20 0 -45 -40 -45 -71 0 -54 64 -78 85 -31 10 22 11 22 240 22 l230 0 67
110 c37 61 64 110 60 110 -4 0 -35 -45 -67 -100z"/>
<path d="M536 2984 c-22 -22 -20 -77 3 -98 23 -21 57 -14 66 15 6 18 18 19
279 19 l272 0 79 -115 c43 -63 80 -113 82 -111 3 2 -32 59 -76 125 l-81 121
-273 0 -272 0 -17 -30 c-19 -33 -39 -38 -57 -16 -17 21 -9 77 12 90 15 9 22 7
38 -13 21 -25 25 -21 9 10 -13 23 -43 25 -64 3z"/>
<path d="M6800 2981 c-16 -31 -12 -35 9 -10 16 20 23 22 38 13 21 -13 29 -69
12 -90 -18 -22 -38 -17 -57 16 l-17 30 -272 0 -273 0 -80 -120 c-44 -66 -80
-125 -80 -131 0 -7 37 42 82 109 l81 122 273 0 c261 0 273 -1 279 -19 17 -53
85 -25 85 35 0 56 -57 88 -80 45z"/>
<path d="M3603 1984 c3 -5 50 -40 106 -79 l100 -70 1 -353 c0 -304 -2 -353
-15 -358 -24 -10 -18 -43 11 -56 31 -14 57 -1 62 31 3 16 -3 24 -17 28 -21 5
-21 9 -21 357 l-1 351 -105 75 c-104 74 -132 91 -121 74z"/>
<path d="M2956 1911 c-22 -24 -17 -53 10 -65 29 -13 34 -72 27 -274 -3 -95 -1
-167 5 -182 6 -17 45 -47 111 -87 55 -34 101 -59 101 -55 0 5 -45 35 -100 68
l-99 59 -1 228 0 227 25 12 c36 16 43 48 15 70 -29 23 -72 23 -94 -1z m88 -7
c22 -21 20 -31 -9 -50 -21 -14 -31 -15 -51 -6 -13 7 -27 19 -30 27 -15 38 58
62 90 29z"/>
<path d="M4967 1849 c4 -13 8 -18 11 -10 2 7 -1 18 -6 23 -8 8 -9 4 -5 -13z"/>
<path d="M4897 1819 c7 -7 15 -10 18 -7 3 3 -2 9 -12 12 -14 6 -15 5 -6 -5z"/>
<path d="M4263 1748 c-12 -6 -24 -17 -27 -25 -8 -20 10 -50 34 -58 20 -6 20
-13 18 -408 l-3 -402 -93 -63 c-51 -35 -91 -66 -88 -69 2 -3 50 26 105 64
l100 68 3 408 3 407 -21 0 c-25 0 -59 34 -49 50 4 7 21 18 39 26 17 7 24 13
16 13 -8 0 -25 -5 -37 -11z"/>
<path d="M4333 1739 c20 -12 22 -39 5 -59 -11 -12 -10 -12 5 -1 28 21 15 72
-17 71 -6 0 -3 -5 7 -11z"/>
<path d="M2696 1311 c5 -4 56 -41 114 -80 l105 -72 5 -270 5 -269 -27 -20
c-33 -24 -35 -41 -10 -63 37 -34 112 -15 112 28 0 14 -8 29 -19 35 -31 16 -35
12 -10 -9 20 -16 22 -23 13 -38 -13 -21 -69 -29 -90 -12 -22 18 -17 38 16 57
l30 17 0 272 0 273 -120 80 c-104 70 -155 99 -124 71z"/>
<path d="M3590 1017 c0 -2 34 -28 75 -58 l74 -54 1 -137 c0 -129 -1 -138 -21
-148 -13 -7 -19 -19 -17 -33 3 -24 26 -32 64 -23 30 8 32 41 4 56 -19 10 -20
21 -20 153 l0 142 -74 53 c-68 47 -86 58 -86 49z"/>
</g>
</svg>
